<svg width="17" height="20" viewBox="0 0 17 20" fill="none" xmlns="http://www.w3.org/2000/svg">
<path d="M11.2783 9.51428C11.2783 10.1068 10.8411 10.5926 10.2874 10.5926C9.74343 10.5926 9.29657 10.1068 9.29657 9.51428C9.29657 8.9217 9.73371 8.43599 10.2874 8.43599C10.8411 8.43599 11.2783 8.9217 11.2783 9.51428ZM6.74171 8.43599C6.188 8.43599 5.75086 8.9217 5.75086 9.51428C5.75086 10.1068 6.19771 10.5926 6.74171 10.5926C7.29543 10.5926 7.73257 10.1068 7.73257 9.51428C7.74229 8.9217 7.29543 8.43599 6.74171 8.43599ZM17 2.28685V19.7143C14.5527 17.5516 15.3354 18.2675 12.4926 15.6246L13.0074 17.4217H1.99143C0.893714 17.4217 0 16.528 0 15.4206V2.28685C0 1.17942 0.893714 0.285706 1.99143 0.285706H15.0086C16.1063 0.285706 17 1.17942 17 2.28685ZM14.2314 11.496C14.2314 8.36799 12.8326 5.83256 12.8326 5.83256C11.4337 4.78342 10.1029 4.81256 10.1029 4.81256L9.96686 4.96799C11.6183 5.47313 12.3857 6.20171 12.3857 6.20171C10.0782 4.93699 7.36753 4.93676 5.12914 5.91999C4.76971 6.08513 4.556 6.20171 4.556 6.20171C4.556 6.20171 5.36229 5.43428 7.11086 4.92913L7.01371 4.81256C7.01371 4.81256 5.68286 4.78342 4.284 5.83256C4.284 5.83256 2.88514 8.36799 2.88514 11.496C2.88514 11.496 3.70114 12.9046 5.848 12.9726C5.848 12.9726 6.20743 12.5354 6.49886 12.1663C5.26514 11.7971 4.79886 11.02 4.79886 11.02C4.94176 11.12 5.17741 11.2497 5.19714 11.2628C6.83681 12.1811 9.16588 12.4819 11.2589 11.6028C11.5989 11.4766 11.9777 11.292 12.376 11.0297C12.376 11.0297 11.8903 11.8263 10.6177 12.1857C10.9091 12.5548 11.2589 12.9726 11.2589 12.9726C13.4057 12.9046 14.2314 11.496 14.2314 11.496Z" fill="black"/>
</svg>
