<svg width="22" height="16" viewBox="0 0 22 16" fill="none" xmlns="http://www.w3.org/2000/svg">
<path d="M20.8833 2.64339C20.638 1.71975 19.9153 0.99232 18.9976 0.745456C17.3343 0.296875 10.6645 0.296875 10.6645 0.296875C10.6645 0.296875 3.99478 0.296875 2.3314 0.745456C1.41374 0.992359 0.690993 1.71975 0.445691 2.64339C0 4.31754 0 7.81051 0 7.81051C0 7.81051 0 11.3035 0.445691 12.9776C0.690993 13.9013 1.41374 14.5984 2.3314 14.8453C3.99478 15.2938 10.6645 15.2938 10.6645 15.2938C10.6645 15.2938 17.3343 15.2938 18.9976 14.8453C19.9153 14.5984 20.638 13.9013 20.8833 12.9776C21.329 11.3035 21.329 7.81051 21.329 7.81051C21.329 7.81051 21.329 4.31754 20.8833 2.64339ZM8.48312 10.9819V4.63916L14.0577 7.81059L8.48312 10.9819Z" fill="white"/>
</svg>
